<svg width="2940" height="759" viewBox="0 0 2940 759" fill="none" xmlns="http://www.w3.org/2000/svg">
<path d="M589.79 296.92C589.79 460.68 457.94 593.44 295.29 593.44C132.64 593.44 0.800049 460.72 0.800049 296.92C0.800049 133.12 132.65 0.409973 295.29 0.409973C457.93 0.409973 589.79 133.16 589.79 296.92ZM912.86 296.92C912.86 451.08 846.93 576.04 765.61 576.04C684.29 576.04 618.36 451.04 618.36 296.92C618.36 142.8 684.29 17.8 765.61 17.8C846.93 17.8 912.86 142.8 912.86 296.92ZM1045 296.92C1045 435.04 1021.81 547 993.21 547C964.61 547 941.42 435 941.42 296.92C941.42 158.84 964.61 46.84 993.22 46.84C1021.83 46.84 1045 158.81 1045 296.92Z" fill="black"/>
<path d="M1206.38 594.925V547.675L1267.5 537.175V107.05L1206.38 96.5499V48.9249H1402.5V96.5499L1341.38 107.05V295.675H1602.38V107.05L1541.25 96.5499V48.9249H1602.38H1676.25H1737.38V96.5499L1676.25 107.05V537.175L1737.38 547.675V594.925H1541.25V547.675L1602.38 537.175V353.8H1341.38V537.175L1402.5 547.675V594.925H1206.38ZM1792.88 594.925V547.675L1854 537.175V247.3L1792.88 236.8V189.175H1927.88V537.175L1989 547.675V594.925H1792.88ZM1850.25 89.0499V9.92493H1927.88V89.0499H1850.25ZM2218.12 758.8C2198.62 758.8 2177.5 756.05 2154.75 750.55C2132 745.3 2112 738.05 2094.75 728.8L2113.88 671.425C2127.62 678.675 2143.88 684.675 2162.62 689.425C2181.38 694.175 2199.62 696.55 2217.38 696.55C2250.38 696.55 2274.5 687.3 2289.75 668.8C2305.25 650.3 2313 623.925 2313 589.675V551.05C2299.75 568.05 2283.88 580.925 2265.38 589.675C2246.88 598.425 2225.62 602.8 2201.62 602.8C2168.62 602.8 2140.12 594.675 2116.12 578.425C2092.12 561.925 2073.62 539.05 2060.62 509.8C2047.88 480.3 2041.5 446.175 2041.5 407.425V399.55C2041.5 356.05 2047.88 317.925 2060.62 285.175C2073.62 252.425 2092.12 227.05 2116.12 209.05C2140.12 190.8 2168.88 181.675 2202.38 181.675C2227.88 181.675 2250.25 186.675 2269.5 196.675C2288.75 206.675 2304.88 221.175 2317.88 240.175L2324.62 189.175H2386.88V589.675C2386.88 624.675 2380.25 654.8 2367 680.05C2354 705.3 2334.88 724.675 2309.62 738.175C2284.62 751.925 2254.12 758.8 2218.12 758.8ZM2220 542.8C2242.25 542.8 2260.88 537.8 2275.88 527.8C2290.88 517.55 2303.25 503.175 2313 484.675V297.925C2303.5 280.675 2291.12 267.05 2275.88 257.05C2260.62 246.8 2242.25 241.675 2220.75 241.675C2197.25 241.675 2177.62 248.425 2161.88 261.925C2146.38 275.425 2134.75 294.05 2127 317.8C2119.25 341.3 2115.38 368.55 2115.38 399.55V407.425C2115.38 448.175 2124 480.925 2141.25 505.675C2158.5 530.425 2184.75 542.8 2220 542.8ZM2375.62 249.55L2346.75 189.175H2437.12V236.425L2375.62 249.55ZM2464.88 594.925V547.675L2526 537.175V68.0499L2464.88 57.5499V9.92493H2599.88V243.175C2613.88 223.675 2631 208.55 2651.25 197.8C2671.5 187.05 2694 181.675 2718.75 181.675C2762.25 181.675 2796 194.675 2820 220.675C2844 246.675 2856 286.675 2856 340.675V537.175L2917.12 547.675V594.925H2721V547.675L2782.12 537.175V339.925C2782.12 306.425 2774.88 281.675 2760.38 265.675C2746.12 249.675 2724.75 241.675 2696.25 241.675C2676 241.675 2657.5 246.55 2640.75 256.3C2624.25 265.8 2610.62 278.8 2599.88 295.3V537.175L2661 547.675V594.925H2464.88Z" fill="black"/>
</svg>
