<svg width="1045" height="594" viewBox="0 0 1045 594" fill="none" xmlns="http://www.w3.org/2000/svg">
<path d="M588.99 296.51C588.99 460.27 457.14 593.03 294.49 593.03C131.84 593.03 0 460.31 0 296.51C0 132.71 131.85 0 294.49 0C457.13 0 588.99 132.75 588.99 296.51ZM912.06 296.51C912.06 450.67 846.13 575.63 764.81 575.63C683.49 575.63 617.56 450.63 617.56 296.51C617.56 142.39 683.49 17.39 764.81 17.39C846.13 17.39 912.06 142.39 912.06 296.51ZM1044.2 296.51C1044.2 434.63 1021.01 546.59 992.41 546.59C963.81 546.59 940.62 434.59 940.62 296.51C940.62 158.43 963.81 46.43 992.42 46.43C1021.03 46.43 1044.2 158.4 1044.2 296.51Z" fill="black"/>
</svg>
